<?xml version="1.0" standalone="no"?>
<!DOCTYPE svg PUBLIC "-//W3C//DTD SVG 20010904//EN"
 "http://www.w3.org/TR/2001/REC-SVG-20010904/DTD/svg10.dtd">
<svg version="1.0" xmlns="http://www.w3.org/2000/svg"
 width="512.000000pt" height="512.000000pt" viewBox="0 0 512.000000 512.000000"
 preserveAspectRatio="xMidYMid meet">

<g transform="translate(0.000000,512.000000) scale(0.100000,-0.100000)"
fill="#000000" stroke="none">
<path d="M558 4570 c-142 -24 -255 -85 -365 -195 -64 -65 -90 -100 -121 -166
-76 -157 -72 -71 -72 -1649 0 -1241 2 -1420 16 -1488 47 -232 223 -425 459
-504 l70 -23 798 -3 798 -3 35 35 c36 36 42 67 22 111 -26 57 -2 55 -825 56
-683 0 -764 2 -824 17 -165 43 -290 170 -334 339 -23 86 -23 2840 0 2926 44
169 169 296 334 339 61 16 205 17 2011 17 1806 0 1950 -1 2011 -17 165 -43
290 -170 334 -339 23 -86 23 -2840 0 -2926 -44 -169 -169 -296 -334 -339 -60
-15 -141 -17 -824 -17 -823 -1 -799 1 -825 -56 -20 -44 -14 -75 22 -111 l35
-35 798 3 798 3 70 23 c176 59 326 187 402 342 77 157 73 69 73 1650 0 1241
-2 1420 -16 1488 -47 232 -223 425 -459 504 l-70 23 -1985 1 c-1092 1 -2006
-2 -2032 -6z"/>
<path d="M659 3730 c-98 -16 -191 -87 -236 -178 l-28 -57 0 -255 0 -255 28
-57 c95 -193 347 -242 510 -99 50 45 101 149 92 190 -9 41 -58 81 -99 81 -43
0 -73 -23 -98 -77 -47 -100 -184 -104 -224 -6 -20 46 -20 400 0 446 17 42 57
68 106 69 52 1 96 -28 120 -78 36 -77 101 -97 158 -49 47 39 50 75 12 151 -62
127 -199 197 -341 174z"/>
<path d="M1347 3730 c-98 -25 -190 -102 -235 -198 -27 -57 -27 -58 -27 -292
l0 -235 33 -67 c75 -152 246 -230 406 -184 106 31 176 92 225 196 26 54 26 58
26 290 0 233 0 235 -26 291 -57 122 -168 199 -296 205 -38 2 -85 -1 -106 -6z
m170 -218 c56 -40 63 -70 63 -272 0 -147 -3 -189 -16 -216 -52 -110 -211 -109
-264 1 -18 36 -20 62 -20 215 0 153 2 179 20 215 39 81 145 109 217 57z"/>
<path d="M2040 3722 c-62 -32 -65 -40 -135 -466 -36 -219 -65 -408 -65 -421 0
-29 35 -74 68 -86 30 -12 82 3 107 31 13 14 27 78 51 221 18 111 34 205 36
211 2 5 28 -82 58 -194 59 -220 80 -259 141 -272 35 -7 86 12 111 41 10 11 42
111 71 223 30 112 56 199 59 194 3 -5 21 -97 39 -204 29 -168 37 -198 59 -223
48 -54 143 -31 163 39 11 37 -126 824 -150 865 -41 69 -145 71 -189 4 -9 -14
-44 -132 -79 -262 -39 -148 -64 -230 -68 -218 -4 11 -31 112 -62 225 -30 113
-62 219 -70 237 -26 58 -91 83 -145 55z"/>
<path d="M3280 3727 c-14 -7 -33 -28 -42 -47 -16 -32 -18 -74 -18 -438 0 -436
2 -453 54 -487 33 -22 91 -14 120 15 20 19 21 35 26 283 l5 262 188 -271 c117
-170 197 -275 213 -283 46 -21 83 -14 120 23 l34 34 0 430 c0 417 -1 430 -20
455 -39 50 -122 44 -157 -10 -16 -24 -19 -58 -23 -280 l-5 -253 -190 276
c-213 310 -232 328 -305 291z"/>
<path d="M4323 3726 c-95 -31 -179 -111 -210 -199 -15 -44 -18 -86 -18 -287 0
-201 3 -242 18 -287 24 -70 93 -145 165 -180 75 -37 191 -40 264 -6 64 29 132
94 163 156 23 46 25 62 25 169 0 178 -15 198 -149 198 -71 0 -83 -3 -110 -26
-25 -21 -31 -33 -31 -66 0 -52 14 -77 56 -94 30 -13 34 -19 34 -52 0 -90 -98
-140 -178 -92 -55 34 -62 66 -62 280 0 214 7 246 62 280 68 41 140 14 182 -68
39 -76 102 -94 158 -43 28 25 33 36 32 74 -2 82 -85 186 -183 230 -57 25 -162
32 -218 13z"/>
<path d="M2959 3701 l-29 -29 0 -432 0 -432 29 -29 c49 -49 128 -35 160 28 16
32 15 832 -1 868 -27 59 -112 73 -159 26z"/>
<path d="M1177 2369 c-83 -20 -164 -83 -202 -158 -27 -53 -31 -142 -10 -197
36 -95 79 -127 270 -201 166 -64 201 -96 179 -162 -11 -32 -84 -71 -134 -71
-61 0 -132 27 -184 70 -27 22 -59 43 -72 46 -58 15 -119 -38 -117 -102 1 -28
10 -46 44 -80 86 -88 234 -141 363 -130 288 23 411 339 201 511 -34 27 -98 60
-195 99 -80 32 -151 63 -158 69 -21 17 -10 68 19 90 57 42 150 32 240 -24 59
-38 99 -37 141 0 27 24 33 36 33 69 0 50 -25 78 -104 121 -103 55 -217 73
-314 50z"/>
<path d="M2015 2367 c-106 -36 -173 -92 -222 -187 l-28 -55 0 -245 0 -245 34
-63 c41 -75 94 -125 170 -161 47 -22 69 -26 141 -26 129 1 219 48 285 148 57
86 67 150 63 376 -5 230 -17 276 -96 360 -86 91 -238 134 -347 98z m166 -209
c68 -38 79 -76 79 -278 0 -155 -2 -178 -21 -216 -52 -109 -211 -108 -263 1
-15 30 -17 64 -14 230 3 177 5 196 24 222 45 62 127 79 195 41z"/>
<path d="M2874 2371 c-93 -23 -195 -108 -237 -199 -21 -44 -22 -61 -22 -292
l0 -245 28 -56 c33 -69 99 -132 175 -167 48 -23 70 -27 142 -27 70 1 95 5 142
27 104 48 176 142 198 257 16 85 13 376 -5 446 -47 184 -237 299 -421 256z
m156 -213 c73 -50 75 -57 75 -278 0 -218 -1 -224 -69 -274 -43 -32 -122 -29
-169 7 -53 40 -59 73 -55 289 3 170 5 189 24 215 45 62 135 81 194 41z"/>
<path d="M3508 2365 c-15 -8 -32 -24 -38 -35 -6 -12 -10 -175 -10 -453 0 -422
1 -435 20 -460 39 -50 122 -44 157 10 16 24 19 58 23 272 l5 246 175 -254 c96
-139 187 -264 203 -277 47 -39 119 -28 154 25 16 24 18 64 21 433 3 443 1 458
-52 493 -36 24 -94 14 -123 -20 -23 -26 -23 -31 -23 -286 0 -142 -3 -259 -7
-259 -5 1 -91 122 -193 271 -102 148 -192 277 -201 285 -24 22 -80 27 -111 9z"/>
<path d="M2511 726 c-30 -17 -50 -52 -51 -89 0 -41 57 -97 100 -97 41 0 100
56 100 94 0 80 -80 130 -149 92z"/>
</g>
</svg>
